REM DIRINDEX 1\2,1\3,1\4,1\5
REM DIRNAME folder01,folder02,folder03,folder04,folder05
TITLE ""
FILE "146.mp3" MP3
  TRACK 01 AUDIO
    TITLE "0:"
    INDEX 01 00:00:00
  TRACK 02 AUDIO
    TITLE "2:cjc046_3976"
    INDEX 01 00:00:13
  TRACK 03 AUDIO
    TITLE "0:"
    INDEX 01 00:01:17
  TRACK 04 AUDIO
    TITLE "3:cjc046_3977"
    INDEX 01 00:01:42
  TRACK 05 AUDIO
    TITLE "0:"
    INDEX 01 00:02:51
  TRACK 06 AUDIO
    TITLE "4:cjc046_3978"
    INDEX 01 00:02:69
  TRACK 07 AUDIO
    TITLE "0:"
    INDEX 01 00:03:74
  TRACK 08 AUDIO
    TITLE "2:cjc046_3979"
    INDEX 01 00:05:09
  TRACK 09 AUDIO
    TITLE "0:"
    INDEX 01 00:06:22
  TRACK 10 AUDIO
    TITLE "3:cjc046_3980"
    INDEX 01 00:06:37
  TRACK 11 AUDIO
    TITLE "0:"
    INDEX 01 00:07:49
  TRACK 12 AUDIO
    TITLE "4:cjc046_3981"
    INDEX 01 00:07:66
  TRACK 13 AUDIO
    TITLE "0:"
    INDEX 01 00:09:04
  TRACK 14 AUDIO
    TITLE "2:cjc046_3982"
    INDEX 01 00:10:08
  TRACK 15 AUDIO
    TITLE "0:"
    INDEX 01 00:11:27
  TRACK 16 AUDIO
    TITLE "3:cjc046_3983"
    INDEX 01 00:11:46
  TRACK 17 AUDIO
    TITLE "0:"
    INDEX 01 00:12:65
  TRACK 18 AUDIO
    TITLE "4:cjc046_3984"
    INDEX 01 00:13:06
  TRACK 19 AUDIO
    TITLE "0:"
    INDEX 01 00:14:25
  TRACK 20 AUDIO
    TITLE "2:cjc046_3985"
    INDEX 01 00:15:30
  TRACK 21 AUDIO
    TITLE "0:"
    INDEX 01 00:16:32
  TRACK 22 AUDIO
    TITLE "3:cjc046_3986"
    INDEX 01 00:16:49
  TRACK 23 AUDIO
    TITLE "0:"
    INDEX 01 00:17:55
  TRACK 24 AUDIO
    TITLE "4:cjc046_3987"
    INDEX 01 00:17:74
  TRACK 25 AUDIO
    TITLE "0:"
    INDEX 01 00:19:01
  TRACK 26 AUDIO
    TITLE "2:cjc046_3988"
    INDEX 01 00:20:10
  TRACK 27 AUDIO
    TITLE "0:"
    INDEX 01 00:21:06
  TRACK 28 AUDIO
    TITLE "3:cjc046_3989"
    INDEX 01 00:21:25
  TRACK 29 AUDIO
    TITLE "0:"
    INDEX 01 00:22:52
  TRACK 30 AUDIO
    TITLE "4:cjc046_3990"
    INDEX 01 00:22:68
  TRACK 31 AUDIO
    TITLE "0:"
    INDEX 01 00:23:65
  TRACK 32 AUDIO
    TITLE "2:cjc046_3991"
    INDEX 01 00:24:67
  TRACK 33 AUDIO
    TITLE "0:"
    INDEX 01 00:26:05
  TRACK 34 AUDIO
    TITLE "3:cjc046_3992"
    INDEX 01 00:26:22
  TRACK 35 AUDIO
    TITLE "0:"
    INDEX 01 00:27:47
  TRACK 36 AUDIO
    TITLE "4:cjc046_3993"
    INDEX 01 00:27:49
  TRACK 37 AUDIO
    TITLE "0:"
    INDEX 01 00:28:62
  TRACK 38 AUDIO
    TITLE "2:cjc046_3994"
    INDEX 01 00:29:66
  TRACK 39 AUDIO
    TITLE "0:"
    INDEX 01 00:31:12
  TRACK 40 AUDIO
    TITLE "3:cjc046_3995"
    INDEX 01 00:31:26
  TRACK 41 AUDIO
    TITLE "0:"
    INDEX 01 00:32:50
  TRACK 42 AUDIO
    TITLE "4:cjc046_3996"
    INDEX 01 00:32:66
  TRACK 43 AUDIO
    TITLE "0:"
    INDEX 01 00:34:12
  TRACK 44 AUDIO
    TITLE "2:cjc046_3997"
    INDEX 01 00:35:21
  TRACK 45 AUDIO
    TITLE "0:"
    INDEX 01 00:36:23
  TRACK 46 AUDIO
    TITLE "3:cjc046_3998"
    INDEX 01 00:36:40
  TRACK 47 AUDIO
    TITLE "0:"
    INDEX 01 00:38:18
  TRACK 48 AUDIO
    TITLE "4:cjc046_3999"
    INDEX 01 00:38:33
  TRACK 49 AUDIO
    TITLE "0:"
    INDEX 01 00:39:35
  TRACK 50 AUDIO
    TITLE "2:cjc046_4000"
    INDEX 01 00:40:38
  TRACK 51 AUDIO
    TITLE "0:"
    INDEX 01 00:41:45
  TRACK 52 AUDIO
    TITLE "3:cjc046_4001"
    INDEX 01 00:41:63
  TRACK 53 AUDIO
    TITLE "0:"
    INDEX 01 00:43:11
  TRACK 54 AUDIO
    TITLE "4:cjc046_4002"
    INDEX 01 00:43:31
  TRACK 55 AUDIO
    TITLE "0:"
    INDEX 01 00:44:38
  TRACK 56 AUDIO
    TITLE "2:cjc046_4003"
    INDEX 01 00:45:41
  TRACK 57 AUDIO
    TITLE "0:"
    INDEX 01 00:46:37
  TRACK 58 AUDIO
    TITLE "3:cjc046_4004"
    INDEX 01 00:46:53
  TRACK 59 AUDIO
    TITLE "0:"
    INDEX 01 00:47:70
  TRACK 60 AUDIO
    TITLE "4:cjc046_4005"
    INDEX 01 00:48:08
  TRACK 61 AUDIO
    TITLE "0:"
    INDEX 01 00:49:04
  TRACK 62 AUDIO
    TITLE "2:cjc046_4006"
    INDEX 01 00:50:15
  TRACK 63 AUDIO
    TITLE "0:"
    INDEX 01 00:51:34
  TRACK 64 AUDIO
    TITLE "3:cjc046_4007"
    INDEX 01 00:51:54
  TRACK 65 AUDIO
    TITLE "0:"
    INDEX 01 00:53:04
  TRACK 66 AUDIO
    TITLE "4:cjc046_4008"
    INDEX 01 00:53:19
  TRACK 67 AUDIO
    TITLE "0:"
    INDEX 01 00:54:38
  TRACK 68 AUDIO
    TITLE "2:cjc046_4009"
    INDEX 01 00:55:48
  TRACK 69 AUDIO
    TITLE "0:"
    INDEX 01 00:56:59
  TRACK 70 AUDIO
    TITLE "3:cjc046_4010"
    INDEX 01 00:57:03
  TRACK 71 AUDIO
    TITLE "0:"
    INDEX 01 00:58:22
  TRACK 72 AUDIO
    TITLE "4:cjc046_4011"
    INDEX 01 00:58:32
  TRACK 73 AUDIO
    TITLE "0:"
    INDEX 01 00:59:43
  TRACK 74 AUDIO
    TITLE "2:cjc046_4012"
    INDEX 01 01:00:53
  TRACK 75 AUDIO
    TITLE "0:"
    INDEX 01 01:01:60
  TRACK 76 AUDIO
    TITLE "3:cjc046_4013"
    INDEX 01 01:02:06
  TRACK 77 AUDIO
    TITLE "0:"
    INDEX 01 01:03:18
  TRACK 78 AUDIO
    TITLE "4:cjc046_4014"
    INDEX 01 01:03:31
  TRACK 79 AUDIO
    TITLE "0:"
    INDEX 01 01:04:41
  TRACK 80 AUDIO
    TITLE "2:cjc046_4015"
    INDEX 01 01:05:50
  TRACK 81 AUDIO
    TITLE "0:"
    INDEX 01 01:06:65
  TRACK 82 AUDIO
    TITLE "3:cjc046_4016"
    INDEX 01 01:07:08
  TRACK 83 AUDIO
    TITLE "0:"
    INDEX 01 01:08:31
  TRACK 84 AUDIO
    TITLE "4:cjc046_4017"
    INDEX 01 01:08:48
  TRACK 85 AUDIO
    TITLE "0:"
    INDEX 01 01:09:61
  TRACK 86 AUDIO
    TITLE "2:cjc046_4018"
    INDEX 01 01:10:73
  TRACK 87 AUDIO
    TITLE "0:"
    INDEX 01 01:12:01
  TRACK 88 AUDIO
    TITLE "3:cjc046_4019"
    INDEX 01 01:12:21
  TRACK 89 AUDIO
    TITLE "0:"
    INDEX 01 01:13:40
  TRACK 90 AUDIO
    TITLE "4:cjc046_4020"
    INDEX 01 01:13:51
  TRACK 91 AUDIO
    TITLE "0:"
    INDEX 01 01:14:57
